<?xml version="1.0" encoding="UTF-8"?>
<svg version="1.1" xmlns="http://www.w3.org/2000/svg" width="500" height="500">
<path d="M0 0 C165 0 330 0 500 0 C500 165 500 330 500 500 C335 500 170 500 0 500 C0 335 0 170 0 0 Z " fill="#FEFEFF" transform="translate(0,0)"/>
<path d="M0 0 C4.28518932 1.45260655 4.58754843 2.13070713 6.5625 6 C7.78828455 8.71133801 8.65737764 11.08594899 9.1953125 14.015625 C9.43894531 15.12164062 9.43894531 15.12164062 9.6875 16.25 C12.57611709 17.69430855 14.48397701 17.62688506 17.6875 17.25 C18.450625 16.425 19.21375 15.6 20 14.75 C22.95262998 12.00336746 23.4418104 11.88744506 27.25 11.875 C30.18792958 12.00738504 32.85451449 12.46627158 35.6875 13.25 C35.04165662 17.25422897 33.82978241 20.95546951 32.50390625 24.7734375 C30.58927625 30.58145387 29.2442671 36.23487281 28.5625 42.3125 C28.43838745 43.41851562 28.43838745 43.41851562 28.31176758 44.546875 C27.22195058 54.95893958 26.62154997 64.4239541 30.6875 74.25 C34.37832043 73.84367316 34.37832043 73.84367316 37.234375 71.6328125 C40.80128824 64.93905973 41.17429791 58.9218243 41.38256836 51.50463867 C41.79385627 37.77841021 44.63496694 22.34731049 54.6875 12.25 C59.94922987 8.09919198 64.67163158 6.69423701 71.328125 6.78125 C73.6875 7.25 73.6875 7.25 76.02734375 8.76953125 C79.51216144 10.70895255 82.04198581 10.54847236 86 10.4375 C87.25425781 10.41042969 88.50851563 10.38335937 89.80078125 10.35546875 C90.75339844 10.32066406 91.70601563 10.28585938 92.6875 10.25 C92.56632812 11.02601563 92.44515625 11.80203125 92.3203125 12.6015625 C91.96272516 14.9066255 91.61176997 17.21272224 91.265625 19.51953125 C90.91013056 21.81343117 90.53012127 24.10388592 90.109375 26.38671875 C88.77852674 34.11514473 88.47696174 41.66684477 88.4375 49.5 C88.42831543 50.50587158 88.41913086 51.51174316 88.40966797 52.5480957 C88.44653723 63.94678048 88.44653723 63.94678048 92.6875 74.25 C95.8431399 73.5677263 95.8431399 73.5677263 97.00390625 70.95703125 C97.41511719 70.00183594 97.82632813 69.04664063 98.25 68.0625 C98.87068359 66.64904297 98.87068359 66.64904297 99.50390625 65.20703125 C101.72229069 59.66473085 102.93840936 55.21877928 102.91796875 49.19921875 C102.91751053 48.5409761 102.91705231 47.88273346 102.9165802 47.20454407 C102.9135754 45.81871731 102.90574264 44.43289339 102.89331055 43.04711914 C102.87514159 40.9538134 102.87280074 38.86095431 102.87304688 36.76757812 C102.85424405 29.86139377 102.63725895 23.09586249 101.6875 16.25 C109.57232239 11.20371367 109.57232239 11.20371367 114.6875 12.25 C118.60114222 16.2985954 118.38643011 21.90341403 118.6875 27.25 C119.1 26.46496094 119.5125 25.67992187 119.9375 24.87109375 C123.58074295 18.24331918 127.08081563 12.24913818 133.6875 8.25 C136.8125 7.5 136.8125 7.5 139.6875 8.25 C142.22278632 9.87421689 143.87300898 10.94198422 145.6875 13.25 C146.17855891 16.36003976 146.31182835 18.61683343 146.125 21.6875 C146.10050781 22.48953857 146.07601562 23.29157715 146.05078125 24.11791992 C145.84854489 29.88912505 145.38295473 35.64339369 144.91796875 41.3984375 C144.62286017 46.33025214 144.5341706 51.24771331 144.5 56.1875 C144.48710937 57.07606689 144.47421875 57.96463379 144.4609375 58.88012695 C144.4530948 64.06954412 144.99647187 68.33732936 146.6875 73.25 C149.09915453 72.86948308 150.39448712 72.54538226 152.13671875 70.7890625 C155.83298381 65.07559285 156.5511182 59.99470013 156.6875 53.25 C158.0075 52.92 159.3275 52.59 160.6875 52.25 C160.83445312 51.61578125 160.98140625 50.9815625 161.1328125 50.328125 C170.07119008 13.13625509 170.07119008 13.13625509 180.6875 6.25 C181.6775 5.59 182.6675 4.93 183.6875 4.25 C185.94921875 4.0546875 185.94921875 4.0546875 188.375 4.125 C189.58736328 4.15207031 189.58736328 4.15207031 190.82421875 4.1796875 C191.43910156 4.20289063 192.05398438 4.22609375 192.6875 4.25 C193.0175 5.9 193.3475 7.55 193.6875 9.25 C192.6975 9.25 191.7075 9.25 190.6875 9.25 C189.25121894 21.85735601 193.49183018 34.71419773 197.875 46.421875 C198.90754734 50.015934 198.90574482 53.42389794 198.8125 57.125 C198.80347656 57.81335938 198.79445313 58.50171875 198.78515625 59.2109375 C198.76182513 60.89077838 198.72596326 62.57043746 198.6875 64.25 C201.3275 63.26 203.9675 62.27 206.6875 61.25 C206.71328125 60.0640625 206.7390625 58.878125 206.765625 57.65625 C207.24212434 42.31902717 208.57055722 25.23426256 219.453125 13.31640625 C225.08055303 8.2150204 229.79405495 7.03677163 237.28515625 6.88671875 C239.6875 7.25 239.6875 7.25 241.51171875 8.7578125 C244.67571925 10.92773744 247.74951818 10.5734464 251.4375 10.4375 C252.13488281 10.42396484 252.83226562 10.41042969 253.55078125 10.39648438 C255.26335541 10.3612945 256.97552941 10.30749155 258.6875 10.25 C258.56632812 10.96542969 258.44515625 11.68085938 258.3203125 12.41796875 C258.15273438 13.41441406 257.98515625 14.41085938 257.8125 15.4375 C257.56886719 16.88189453 257.56886719 16.88189453 257.3203125 18.35546875 C257.11148437 19.64066406 256.90265625 20.92585938 256.6875 22.25 C256.51992188 23.17594971 256.35234375 24.10189941 256.1796875 25.0559082 C254.7443637 33.43909627 254.38443159 41.56713226 254.4375 50.0625 C254.42976563 51.31998047 254.42203125 52.57746094 254.4140625 53.87304688 C254.43275856 64.37155939 254.43275856 64.37155939 257.6875 74.25 C258.6775 74.25 259.6675 74.25 260.6875 74.25 C261.48436606 72.71101439 262.27473141 71.16866216 263.0625 69.625 C263.50335938 68.76648438 263.94421875 67.90796875 264.3984375 67.0234375 C271.31196605 52.14887606 267.62023987 31.70004948 263.6875 16.25 C268.70795939 13.32900544 272.70948536 11.31227221 278.6875 12.25 C281.5825801 15.22859203 282.24961696 17.95906344 282.875 22 C283.11283203 23.47726563 283.11283203 23.47726563 283.35546875 24.984375 C283.46503906 25.73203125 283.57460938 26.4796875 283.6875 27.25 C284.13480469 26.36957031 284.58210938 25.48914063 285.04296875 24.58203125 C285.64753906 23.42058594 286.25210937 22.25914062 286.875 21.0625 C287.46667969 19.91394531 288.05835938 18.76539063 288.66796875 17.58203125 C291.37112709 13.12208142 294.36360591 10.13259606 298.6875 7.25 C302.75861629 7.32539104 305.05395112 7.79325546 308.375 10.1875 C314.68099489 18.53868242 315.29527562 26.91944843 315.125 37.125 C315.13208984 38.31480469 315.13917969 39.50460938 315.14648438 40.73046875 C315.05302341 53.88689637 312.53107209 67.39862508 303.1875 77.25 C299.80094373 80.57265898 296.55679553 82.1238667 291.79296875 82.4453125 C290.83003906 82.42210937 289.86710937 82.39890625 288.875 82.375 C287.89917969 82.35695313 286.92335938 82.33890625 285.91796875 82.3203125 C285.18191406 82.29710937 284.44585937 82.27390625 283.6875 82.25 C283.69797363 82.80236328 283.70844727 83.35472656 283.71923828 83.92382812 C284.34287331 122.03661171 284.34287331 122.03661171 275.0859375 134.38671875 C272.18078149 137.23217977 269.64072961 138.61492817 265.5625 138.9375 C260.82291835 138.09660648 259.50569799 137.11495724 256.6875 133.25 C249.23418144 119.88542878 254.41967495 101.97118697 258.26660156 88.17285156 C258.73395678 86.53010211 259.20977364 84.88976345 259.6875 83.25 C259.10742188 83.30800781 258.52734375 83.36601562 257.9296875 83.42578125 C253.66400666 83.67214896 251.24160074 83.55901772 247.4375 81.4375 C242.40247709 76.54272842 239.83039326 69.03362449 238.6875 62.25 C238.47996094 62.86746094 238.27242187 63.48492187 238.05859375 64.12109375 C235.55755758 70.99632706 232.16414804 78.5519818 225.65234375 82.4765625 C222.7976638 83.6002735 220.72976268 83.62252196 217.6875 83.25 C212.12875672 80.26725971 210.1609251 74.76521171 207.6875 69.25 C206.82125 69.58 205.955 69.91 205.0625 70.25 C201.73031725 71.23731341 199.13590462 71.41420974 195.6875 71.25 C195.501875 71.95125 195.31625 72.6525 195.125 73.375 C192.79926396 78.02647209 189.01159754 81.08597831 184.38671875 83.40234375 C178.51203925 85.24721416 171.20619326 85.37830825 165.32421875 83.4921875 C162.01951506 81.69476836 159.63373185 79.45555834 157.6875 76.25 C156.5428125 77.425625 156.5428125 77.425625 155.375 78.625 C151.61798678 82.29464082 149.49758929 83.56675135 144.3125 83.6875 C140.54453437 83.58808138 138.97113183 83.42136089 135.6875 81.4375 C130.4416266 73.07688927 130.25634339 63.72973121 130.4375 54.125 C130.45393555 52.36289185 130.45393555 52.36289185 130.47070312 50.56518555 C130.58579991 41.44063775 130.96902611 32.34639258 131.6875 23.25 C118.62770082 35.56726879 116.76844821 53.85261695 116.25 70.875 C116.23501465 71.86008545 116.2200293 72.8451709 116.20458984 73.86010742 C116.17961426 74.7854126 116.15463867 75.71071777 116.12890625 76.6640625 C116.11545166 77.4988916 116.10199707 78.3337207 116.08813477 79.19384766 C115.95592529 79.87237793 115.82371582 80.5509082 115.6875 81.25 C112.47286282 83.39309145 110.45688118 83.71579085 106.62890625 83.65234375 C104.6875 83.25 104.6875 83.25 102.1875 80.75 C101.6925 79.925 101.1975 79.1 100.6875 78.25 C99.883125 79.075 99.07875 79.9 98.25 80.75 C94.87327074 83.55196683 92.18176852 83.93986505 87.86328125 83.6640625 C82.82554513 82.70535509 80.32316066 80.17624839 77.5 76.0625 C75.37931665 71.98085003 74.00327225 67.64587547 72.6875 63.25 C72.03394531 64.67892578 72.03394531 64.67892578 71.3671875 66.13671875 C70.76639665 67.40401194 70.16479037 68.67091878 69.5625 69.9375 C69.27890625 70.56333984 68.9953125 71.18917969 68.703125 71.83398438 C66.17275673 77.08724894 63.00925061 80.5891247 57.6875 83.25 C54.875 83.625 54.875 83.625 51.6875 83.25 C49 80.9375 49 80.9375 46.6875 78.25 C45.69460032 77.24294974 44.69618257 76.24124138 43.6875 75.25 C42.85605469 75.99056641 42.85605469 75.99056641 42.0078125 76.74609375 C41.28335938 77.38675781 40.55890625 78.02742188 39.8125 78.6875 C39.09320313 79.32558594 38.37390625 79.96367187 37.6328125 80.62109375 C33.94691508 83.70747774 30.9018872 83.59363582 26.2265625 83.51953125 C22.37762042 83.11095125 20.47607692 81.90578755 17.6875 79.25 C8.86509076 65.91709858 12.16270442 46.54011293 14.93359375 31.71484375 C15.6875 28.25 15.6875 28.25 16.6875 26.25 C15.73875 26.105625 14.79 25.96125 13.8125 25.8125 C10.6875 25.25 10.6875 25.25 8.6875 24.25 C8.58953125 25.24515625 8.4915625 26.2403125 8.390625 27.265625 C4.67303844 62.83283657 4.67303844 62.83283657 -1.3125 71.25 C-3.375 72.05078125 -3.375 72.05078125 -5.3125 72.25 C-5.6425 71.92 -5.9725 71.59 -6.3125 71.25 C-5.9999072 66.40481157 -5.31806331 62.02531852 -3.9375 57.375 C-0.64377358 45.82261966 2.7184079 31.19759334 0.6875 19.25 C-0.75298196 16.82854466 -1.96163838 15.91280456 -4.3125 14.25 C-5.55137548 11.77224905 -5.47991669 10.01346293 -5.5 7.25 C-5.51417969 6.363125 -5.52835937 5.47625 -5.54296875 4.5625 C-5.15146598 0.63420103 -3.78192999 0.28542868 0 0 Z " fill="#2292FF" transform="translate(105.3125,201.75)"/>
<path d="M0 0 C4.47322575 1.15686873 5.84461667 2.25537072 8.625 5.9375 C12.86723456 13.74928011 13.20841148 21.06722488 13.0625 29.8125 C13.06958984 31.00230469 13.07667969 32.19210938 13.08398438 33.41796875 C12.99052341 46.57439637 10.46857209 60.08612508 1.125 69.9375 C-2.26155627 73.26015898 -5.50570447 74.8113667 -10.26953125 75.1328125 C-11.23246094 75.10960937 -12.19539063 75.08640625 -13.1875 75.0625 C-14.16332031 75.04445313 -15.13914062 75.02640625 -16.14453125 75.0078125 C-16.88058594 74.98460937 -17.61664063 74.96140625 -18.375 74.9375 C-18.36452637 75.48986328 -18.35405273 76.04222656 -18.34326172 76.61132812 C-17.71962669 114.72411171 -17.71962669 114.72411171 -26.9765625 127.07421875 C-29.88171851 129.91967977 -32.42177039 131.30242817 -36.5 131.625 C-41.23958165 130.78410648 -42.55680201 129.80245724 -45.375 125.9375 C-52.08552564 113.90483334 -48.40929218 97.63690346 -44.98242188 85.03613281 C-43.09189888 78.50440624 -40.85971459 72.06919307 -37.9453125 65.921875 C-30.30579283 49.08903504 -33.93101377 26.39601734 -38.375 8.9375 C-33.35454061 6.01650544 -29.35301464 3.99977221 -23.375 4.9375 C-20.4799199 7.91609203 -19.81288304 10.64656344 -19.1875 14.6875 C-19.02894531 15.67234375 -18.87039063 16.6571875 -18.70703125 17.671875 C-18.59746094 18.41953125 -18.48789062 19.1671875 -18.375 19.9375 C-17.92769531 19.05707031 -17.48039062 18.17664063 -17.01953125 17.26953125 C-16.11267578 15.52736328 -16.11267578 15.52736328 -15.1875 13.75 C-14.59582031 12.60144531 -14.00414062 11.45289063 -13.39453125 10.26953125 C-10.27412627 5.12116482 -6.40455464 -0.11860286 0 0 Z " fill="#2292FF" transform="translate(460.375,209.0625)"/>
<path d="M0 0 C1.30146973 0.00604248 2.60293945 0.01208496 3.94384766 0.01831055 C12.17245632 0.1013922 20.35989918 0.3986509 28.5625 1.0625 C29.93208862 1.16739746 29.93208862 1.16739746 31.3293457 1.27441406 C37.50174143 1.85624538 44.12946631 2.69196631 48.6875 7.25 C48.6875 8.24 48.6875 9.23 48.6875 10.25 C46.1582201 11.51463995 44.38743638 11.37940982 41.55859375 11.3828125 C40.52283203 11.38410156 39.48707031 11.38539063 38.41992188 11.38671875 C37.33259766 11.38285156 36.24527344 11.37898437 35.125 11.375 C34.06474609 11.37886719 33.00449219 11.38273438 31.91210938 11.38671875 C25.75366387 11.37912042 19.79326101 11.05726746 13.6875 10.25 C13.57277344 11.26320312 13.45804688 12.27640625 13.33984375 13.3203125 C12.59716993 19.26431349 11.56953842 25.16230753 10.5887146 31.07064819 C7.7946609 48.01697785 5.54174469 64.41341736 5.4375 81.625 C5.42807373 82.7905542 5.41864746 83.9561084 5.40893555 85.15698242 C5.45112733 96.33780516 7.16868734 106.64664451 10.6875 117.25 C1.95346169 118.16580208 1.95346169 118.16580208 -2.25 115.125 C-8.43787748 105.94157759 -8.46334395 91.38746092 -8.48046875 80.5625 C-8.48456757 79.75028488 -8.48866638 78.93806976 -8.4928894 78.10124207 C-8.50239959 75.4841177 -8.50242319 72.86713907 -8.5 70.25 C-8.50039276 69.35793854 -8.50078552 68.46587708 -8.50119019 67.54678345 C-8.49414604 54.20111948 -8.05894606 41.03000678 -6.57861328 27.75537109 C-6.18050889 24.00734607 -5.88864325 20.25065086 -5.59155273 16.4934082 C-5.3125 14.25 -5.3125 14.25 -4.3125 12.25 C-7.75052565 13.06028653 -11.18782591 13.87360946 -14.625 14.6875 C-15.60146484 14.91759766 -16.57792969 15.14769531 -17.58398438 15.38476562 C-18.52177734 15.60712891 -19.45957031 15.82949219 -20.42578125 16.05859375 C-21.28985596 16.26282959 -22.15393066 16.46706543 -23.04418945 16.67749023 C-24.82112794 17.12598025 -26.57388322 17.67046107 -28.3125 18.25 C-31.9375 18.375 -31.9375 18.375 -35.3125 18.25 C-36.3125 17.25 -36.3125 17.25 -36.5 13.9375 C-36.32268033 10.45021308 -36.10805619 9.09832529 -34.3125 6.25 C-23.97888215 -0.25635198 -11.86889708 -0.08871202 0 0 Z " fill="#2392FF" transform="translate(59.3125,171.75)"/>
<path d="M0 0 C0.99 0 1.98 0 3 0 C7.43709959 15.1748806 6.56626289 33.04213179 -0.1328125 47.43359375 C-2.26377799 50.94051377 -3.77538716 51.94010324 -7.75 53 C-8.8225 53 -9.895 53 -11 53 C-13.43917999 50.56082001 -12.43171343 43.95087499 -12.4597168 40.55908203 C-12.26173004 28.47871367 -8.97237925 8.97237925 0 0 Z " fill="#F8FBFF" transform="translate(453,224)"/>
<path d="M0 0 C0.99 0 1.98 0 3 0 C7.43709959 15.1748806 6.56626289 33.04213179 -0.1328125 47.43359375 C-2.26377799 50.94051377 -3.77538716 51.94010324 -7.75 53 C-8.8225 53 -9.895 53 -11 53 C-13.43917999 50.56082001 -12.43171343 43.95087499 -12.4597168 40.55908203 C-12.26173004 28.47871367 -8.97237925 8.97237925 0 0 Z " fill="#F8FBFF" transform="translate(400,224)"/>
<path d="M0 0 C-0.55535124 4.93317326 -1.13295896 9.86287475 -1.73535156 14.79052734 C-1.96014958 16.66730046 -2.16574418 18.54635792 -2.3671875 20.42578125 C-3.17270729 26.89459836 -4.75798417 32.85619445 -6.875 39 C-7.11959961 39.71865234 -7.36419922 40.43730469 -7.61621094 41.17773438 C-9.15587201 45.42631798 -10.92787144 48.59539 -14 52 C-14.99 51.67 -15.98 51.34 -17 51 C-19.05579702 46.47724655 -19.31729808 42.14286293 -19.25 37.25 C-19.24395752 36.54480225 -19.23791504 35.83960449 -19.23168945 35.11303711 C-19.12622267 29.5296895 -18.50814667 24.36750338 -17 19 C-16.78214844 18.20980469 -16.56429687 17.41960937 -16.33984375 16.60546875 C-13.81999184 8.30235018 -9.73079559 -0.42237176 0 0 Z " fill="#F8FCFF" transform="translate(181,217)"/>
<path d="M0 0 C-0.72905796 5.19837316 -1.4672424 10.39522931 -2.22265625 15.58984375 C-2.65447112 18.55965178 -3.06501073 21.525357 -3.43359375 24.50390625 C-4.24020642 30.48281873 -5.86444411 35.91872653 -7.9375 41.5625 C-8.19055908 42.25448486 -8.44361816 42.94646973 -8.7043457 43.65942383 C-10.00285926 47.02221961 -11.12986364 49.72959363 -14 52 C-15.9375 51.3125 -15.9375 51.3125 -18 50 C-20.87680386 40.51383032 -19.960684 27.33464063 -17 18 C-16.74283203 16.90365234 -16.74283203 16.90365234 -16.48046875 15.78515625 C-14.28080571 7.4832022 -9.3494889 -0.84025364 0 0 Z " fill="#F9FCFF" transform="translate(347,217)"/>
<path d="M0 0 C0.66 0.33 1.32 0.66 2 1 C5.71390212 12.94135036 6.1587123 24.60280611 6 37 C2.04228909 36.45509777 -1.26016892 35.6353752 -4.875 33.9375 C-5.65617187 33.57527344 -6.43734375 33.21304688 -7.2421875 32.83984375 C-7.82226562 32.56269531 -8.40234375 32.28554688 -9 32 C-8.39161836 26.35181491 -6.93464139 21.35154086 -5.0625 16 C-3.23390598 10.69663244 -1.4891064 5.40970054 0 0 Z " fill="#F7FBFF" transform="translate(281,227)"/>
<path d="M0 0 C0.66 0 1.32 0 2 0 C2.07530902 4.58574001 2.12913594 9.17110418 2.16479492 13.75732422 C2.17969189 15.31077358 2.20001651 16.86418235 2.22631836 18.41748047 C2.39658133 28.7467675 1.68124795 37.95413675 -1 48 C-1.99 48 -2.98 48 -4 48 C-6.46035316 44.22089755 -6.38347123 40.36174255 -6.375 36 C-6.3747583 34.82969238 -6.3747583 34.82969238 -6.37451172 33.63574219 C-6.16069265 22.27857338 -3.8278449 10.69037765 0 0 Z " fill="#EBF5FF" transform="translate(426,283)"/>
<path d="M0 0 C0.66 0 1.32 0 2 0 C2.07530902 4.58574001 2.12913594 9.17110418 2.16479492 13.75732422 C2.17969189 15.31077358 2.20001651 16.86418235 2.22631836 18.41748047 C2.39658133 28.7467675 1.68124795 37.95413675 -1 48 C-1.99 48 -2.98 48 -4 48 C-6.46035316 44.22089755 -6.38347123 40.36174255 -6.375 36 C-6.3747583 34.82969238 -6.3747583 34.82969238 -6.37451172 33.63574219 C-6.16069265 22.27857338 -3.8278449 10.69037765 0 0 Z " fill="#EBF5FF" transform="translate(373,283)"/>
<path d="M0 0 C4.95 0.99 9.9 1.98 15 3 C14.34 4.32 13.68 5.64 13 7 C9.14019764 8.09239689 6.88493291 8.3462781 3.125 6.875 C1 5 1 5 0 0 Z " fill="#F1F8FF" transform="translate(269,270)"/>
</svg>
